<svg xmlns="http://www.w3.org/2000/svg" viewBox="0 0 40 43.48"><defs><style>.cls-1{fill:#555;}</style></defs><title>trash</title><g id="Capa_2" data-name="Capa 2"><g id="Capa_2-2" data-name="Capa 2"><path class="cls-1" d="M36.32,25.1c0,4.35,0,8.71,0,13.06a5.1,5.1,0,0,1-5.4,5.32H9.2c-3.37,0-5.47-2.1-5.47-5.51q0-12.93,0-25.85c0-.9-.22-1.3-1.15-1.15H2.52C.09,11-.27,10.53.15,8.1c.12-.71.59-.9,1.23-.9,2.46,0,4.93,0,7.39,0a1.24,1.24,0,0,0,1.38-.94c.45-1.18.95-2.33,1.44-3.49A4.28,4.28,0,0,1,15.81,0c2.82,0,5.65,0,8.47,0a4.38,4.38,0,0,1,4.26,2.87c.47,1.14,1,2.25,1.4,3.41a1.22,1.22,0,0,0,1.38.94c2.4-.05,4.8,0,7.21,0,1.15,0,1.41.27,1.46,1.43.08,2.26,0,2.33-2.22,2.33-1.41,0-1.41,0-1.41,1.43q0,6.35,0,12.7Zm-21.8.22q0-4.28,0-8.56c0-2.2,0-2.2-2.19-2.16-.95,0-1.22.29-1.23,1.25,0,1.86,0,3.72,0,5.59q0,6.62,0,13.24c0,1.18.24,1.41,1.43,1.42h.54c1.22,0,1.44-.21,1.44-1.4C14.53,31.57,14.53,28.45,14.53,25.32Zm11,0c0,3.15,0,6.31,0,9.46,0,1,.3,1.33,1.33,1.35h.63c1.24,0,1.48-.22,1.48-1.47Q29,25.3,29,16c0-1.16-.23-1.36-1.38-1.37H27c-1.19,0-1.44.24-1.44,1.41Q25.51,20.65,25.52,25.29Zm-3.79.1q0-4.33,0-8.65c0-2.16,0-2.16-2.13-2.13-1,0-1.31.3-1.31,1.36,0,1.68,0,3.36,0,5q0,6.8,0,13.61c0,1.2.27,1.47,1.49,1.47h.63c1.08,0,1.32-.25,1.32-1.33Q21.74,30.07,21.73,25.39ZM13.92,7.14H26.17c-.46-1.07-.82-2-1.29-3A1.19,1.19,0,0,0,24,3.78c-2.61,0-5.22,0-7.83,0a1.35,1.35,0,0,0-1,.55C14.68,5.19,14.35,6.12,13.92,7.14Z"/></g></g></svg>